<svg width="40" height="40" viewBox="0 0 40 40" fill="none" xmlns="http://www.w3.org/2000/svg">
<path d="M20 36.6667C29.2047 36.6667 36.6667 29.2047 36.6667 20C36.6667 10.7953 29.2047 3.33337 20 3.33337C10.7953 3.33337 3.33334 10.7953 3.33334 20C3.33334 29.2047 10.7953 36.6667 20 36.6667Z" fill="#2F5EC8"/>
<path d="M26.1843 26.5528C25.9677 26.5528 25.751 26.5028 25.551 26.3695L20.3843 23.2862C19.101 22.5195 18.151 20.8362 18.151 19.3528V12.5195C18.151 11.8362 18.7177 11.2695 19.401 11.2695C20.0843 11.2695 20.651 11.8362 20.651 12.5195V19.3528C20.651 19.9528 21.151 20.8362 21.6677 21.1362L26.8343 24.2195C27.4343 24.5695 27.6177 25.3362 27.2677 25.9362C27.0177 26.3362 26.601 26.5528 26.1843 26.5528Z" fill="white"/>
</svg>
