<svg width="40" height="40" viewBox="0 0 40 40" fill="none" xmlns="http://www.w3.org/2000/svg">
<path d="M25 5.00004V20C25 21.8334 23.5 23.3334 21.6667 23.3334H3.33333V10C3.33333 6.31671 6.31667 3.33337 10 3.33337H23.3333C24.25 3.33337 25 4.08337 25 5.00004Z" fill="#2F5EC8"/>
<path d="M36.6667 23.3334V28.3334C36.6667 31.1 34.4333 33.3334 31.6667 33.3334H30C30 31.5 28.5 30 26.6667 30C24.8333 30 23.3333 31.5 23.3333 33.3334H16.6667C16.6667 31.5 15.1667 30 13.3333 30C11.5 30 10 31.5 10 33.3334H8.33333C5.56667 33.3334 3.33333 31.1 3.33333 28.3334V23.3334H21.6667C23.5 23.3334 25 21.8334 25 20V8.33337H28.0667C29.2667 8.33337 30.3667 8.98339 30.9667 10.0167L33.8167 15H31.6667C30.75 15 30 15.75 30 16.6667V21.6667C30 22.5834 30.75 23.3334 31.6667 23.3334H36.6667Z" fill="white"/>
<path d="M13.3333 36.6667C15.1743 36.6667 16.6667 35.1743 16.6667 33.3333C16.6667 31.4923 15.1743 30 13.3333 30C11.4924 30 10 31.4923 10 33.3333C10 35.1743 11.4924 36.6667 13.3333 36.6667Z" fill="#2F5EC8"/>
<path d="M26.6667 36.6667C28.5077 36.6667 30 35.1743 30 33.3333C30 31.4923 28.5077 30 26.6667 30C24.8257 30 23.3333 31.4923 23.3333 33.3333C23.3333 35.1743 24.8257 36.6667 26.6667 36.6667Z" fill="#2F5EC8"/>
<path d="M36.6667 20.8833V23.3333H31.6667C30.75 23.3333 30 22.5833 30 21.6667V16.6667C30 15.75 30.75 15 31.6667 15H33.8167L36.2333 19.2333C36.5167 19.7333 36.6667 20.3 36.6667 20.8833Z" fill="#2F5EC8"/>
</svg>
