<svg width="40" height="40" viewBox="0 0 40 40" fill="none" xmlns="http://www.w3.org/2000/svg">
<path d="M16.4464 12.9554C16.4464 10.9821 18.0446 9.38393 20 9.38393C21.9554 9.38393 23.5536 10.9821 23.5536 12.9554C23.5536 14.9196 21.9554 16.5089 20 16.5089C18.0446 16.5089 16.4464 14.9107 16.4464 12.9554ZM40 4.28571V35.7143C40 38.0804 38.0804 40 35.7143 40H4.28571C1.91964 40 0 38.0804 0 35.7143V4.28571C0 1.91964 1.91964 0 4.28571 0H35.7143C38.0804 0 40 1.91964 40 4.28571ZM12.7589 12.9554C12.7589 16.9375 16.0089 20.1786 20 20.1786C23.9911 20.1786 27.2411 16.9464 27.2411 12.9554C27.2411 8.95536 23.9911 5.71429 20 5.71429C16.0089 5.71429 12.7589 8.94643 12.7589 12.9554ZM28.3393 21.0536C27.9286 20.2411 26.7946 19.5536 25.2946 20.7321C25.2946 20.7321 23.2679 22.3393 20 22.3393C16.7321 22.3393 14.7054 20.7321 14.7054 20.7321C13.2054 19.5536 12.0714 20.2411 11.6607 21.0536C10.9554 22.4911 11.7589 23.1696 13.5714 24.3571C15.1161 25.3482 17.25 25.7143 18.625 25.8571L17.4732 27.0089C15.8482 28.6161 14.3036 30.1786 13.2143 31.2679C11.6429 32.8393 14.1696 35.3571 15.75 33.8214L20.0089 29.5446C21.6339 31.1696 23.1964 32.7321 24.2679 33.8214C25.8393 35.3571 28.375 32.8661 26.8214 31.2679L22.5625 27.0089L21.4018 25.8571C22.7857 25.7143 24.8929 25.3304 26.4196 24.3571C28.2411 23.1696 29.0357 22.4821 28.3393 21.0536Z" fill="#2F5EC8"/>
</svg>
