<svg width="26" height="26" viewBox="0 0 26 26" fill="none" xmlns="http://www.w3.org/2000/svg">
<path fill-rule="evenodd" clip-rule="evenodd" d="M22.9998 10.0003H24.9998C24.9972 7.61412 24.0481 5.3264 22.3608 3.63909C20.6735 1.95178 18.3858 1.00269 15.9996 1.00004V3.0001C17.8555 3.00222 19.6348 3.74042 20.9471 5.05276C22.2595 6.3651 22.9977 8.1444 22.9998 10.0003ZM19.5727 16.2425L17.3326 18.4826C8.66632 17.3996 7.42428 8.66729 7.42428 8.66729L9.66435 6.42721C9.96427 6.12737 10.1696 5.74611 10.2549 5.33068C10.3403 4.91526 10.3018 4.48393 10.1444 4.09014L9.05333 1.36205C8.89245 0.95996 8.61478 0.615296 8.25614 0.37252C7.8975 0.129744 7.47435 -5.46278e-06 7.04127 8.4437e-06H2.16811C1.86292 -0.000844459 1.561 0.062926 1.28222 0.187125C1.00344 0.311325 0.754107 0.493139 0.550631 0.720608C0.347155 0.948078 0.194143 1.21605 0.101659 1.50689C0.00917523 1.79774 -0.0206849 2.10487 0.0140426 2.40809C0.731066 8.61028 4.59319 24.8068 23.7158 25.9968C24.0102 26.0128 24.3048 25.9684 24.5815 25.8665C24.8583 25.7647 25.1113 25.6074 25.3251 25.4043C25.5389 25.2013 25.709 24.9567 25.8251 24.6856C25.9411 24.4146 26.0006 24.1226 25.9999 23.8278V18.8666C25.9999 18.4335 25.8701 18.0104 25.6274 17.6517C25.3846 17.2931 25.0399 17.0154 24.6378 16.8545L21.9097 15.7625C21.516 15.6051 21.0846 15.5666 20.6692 15.6519C20.2538 15.7373 19.8725 15.9426 19.5727 16.2425ZM18.9996 10.0003H20.9997C20.9981 8.67468 20.4708 7.40379 19.5334 6.46642C18.5961 5.52905 17.3252 5.00174 15.9995 5.00015V7.00022C16.795 7.00101 17.5576 7.31735 18.1201 7.8798C18.6825 8.44226 18.9988 9.20488 18.9996 10.0003Z" fill="#BBBFCA"/>
</svg>
