<svg width="40" height="40" viewBox="0 0 40 40" fill="none" xmlns="http://www.w3.org/2000/svg">
<path d="M18.268 3.43099L9.1013 6.86432C7.3513 7.53098 5.91797 9.59765 5.91797 11.481V24.981C5.91797 26.3309 6.8013 28.1143 7.88464 28.9143L17.0513 35.7643C18.668 36.9809 21.318 36.9809 22.9347 35.7643L32.1013 28.9143C33.1847 28.0976 34.068 26.3309 34.068 24.981V11.481C34.068 9.61432 32.6347 7.53099 30.8847 6.88099L21.718 3.44765C20.7847 3.08099 19.218 3.08099 18.268 3.43099Z" fill="#2F5EC8"/>
<path d="M17.7639 23.7185C17.4472 23.7185 17.1305 23.6019 16.8805 23.3519L14.1972 20.6685C13.7138 20.1852 13.7138 19.3852 14.1972 18.9019C14.6805 18.4185 15.4805 18.4185 15.9638 18.9019L17.7639 20.7019L24.0472 14.4185C24.5305 13.9352 25.3305 13.9352 25.8139 14.4185C26.2972 14.9019 26.2972 15.7019 25.8139 16.1852L18.6472 23.3519C18.3972 23.6019 18.0805 23.7185 17.7639 23.7185Z" fill="white"/>
</svg>
