<svg width="40" height="40" viewBox="0 0 40 40" fill="none" xmlns="http://www.w3.org/2000/svg">
<path d="M17.9182 4.08381C19.0682 3.10048 20.9515 3.10048 22.1182 4.08381L24.7515 6.35048C25.2515 6.78381 26.1848 7.13381 26.8515 7.13381H29.6848C31.4515 7.13381 32.9015 8.58381 32.9015 10.3505V13.1838C32.9015 13.8338 33.2515 14.7838 33.6848 15.2838L35.9515 17.9171C36.9348 19.0671 36.9348 20.9505 35.9515 22.1171L33.6848 24.7505C33.2515 25.2505 32.9015 26.1838 32.9015 26.8505V29.6838C32.9015 31.4505 31.4515 32.9005 29.6848 32.9005H26.8515C26.2015 32.9005 25.2515 33.2505 24.7515 33.6838L22.1182 35.9505C20.9682 36.9338 19.0848 36.9338 17.9182 35.9505L15.2848 33.6838C14.7848 33.2505 13.8514 32.9005 13.1848 32.9005H10.3014C8.53478 32.9005 7.08478 31.4505 7.08478 29.6838V26.8338C7.08478 26.1838 6.73478 25.2505 6.31811 24.7505L4.06811 22.1005C3.10144 20.9505 3.10144 19.0838 4.06811 17.9338L6.31811 15.2838C6.73478 14.7838 7.08478 13.8505 7.08478 13.2005V10.3338C7.08478 8.56715 8.53478 7.11715 10.3014 7.11715H13.1848C13.8348 7.11715 14.7848 6.76715 15.2848 6.33381L17.9182 4.08381Z" fill="#2F5EC8"/>
<path d="M17.9842 25.2854C17.6508 25.2854 17.3342 25.152 17.1008 24.9187L13.0676 20.8854C12.5842 20.402 12.5842 19.602 13.0676 19.1187C13.5509 18.6354 14.3509 18.6354 14.8342 19.1187L17.9842 22.2687L25.1508 15.1021C25.6342 14.6188 26.4342 14.6188 26.9175 15.1021C27.4008 15.5855 27.4008 16.3855 26.9175 16.8687L18.8675 24.9187C18.6342 25.152 18.3175 25.2854 17.9842 25.2854Z" fill="white"/>
</svg>
