<svg width="40" height="40" viewBox="0 0 40 40" fill="none" xmlns="http://www.w3.org/2000/svg">
<path d="M20 7.96432C13.5089 7.96432 8.23214 13.2411 8.22321 19.7322C8.22321 21.9554 8.84822 24.125 10.0268 25.9911L10.3036 26.4375L9.11607 30.7768L13.5714 29.6072L14 29.8661C15.8036 30.9375 17.875 31.509 19.9911 31.509H20C26.4821 31.509 31.9018 26.2322 31.9018 19.7411C31.9018 16.5982 30.5446 13.6429 28.3214 11.4197C26.0893 9.18754 23.1429 7.96432 20 7.96432ZM26.9196 24.7858C26.625 25.6161 25.2143 26.3661 24.5357 26.4643C23.4107 26.634 22.5357 26.5447 20.2946 25.5804C16.75 24.0447 14.4286 20.4732 14.25 20.2411C14.0714 20.009 12.8036 18.3215 12.8036 16.5804C12.8036 14.8393 13.7143 13.9822 14.0446 13.625C14.3661 13.2679 14.75 13.1786 14.9911 13.1786C15.2232 13.1786 15.4643 13.1786 15.6696 13.1875C15.8839 13.1965 16.1786 13.1072 16.4643 13.7947C16.7589 14.5 17.4643 16.2411 17.5536 16.4197C17.6429 16.5982 17.7054 16.8036 17.5804 17.0357C16.9018 18.3929 16.1786 18.3393 16.5446 18.9643C17.9107 21.3125 19.2768 22.125 21.3571 23.1697C21.7143 23.3482 21.9196 23.3215 22.125 23.0804C22.3304 22.8482 23.0089 22.0447 23.2411 21.6965C23.4732 21.3393 23.7143 21.4018 24.0357 21.5179C24.3571 21.634 26.0982 22.4911 26.4554 22.6697C26.8125 22.8482 27.0446 22.9375 27.1339 23.0804C27.2143 23.25 27.2143 23.9643 26.9196 24.7858ZM35.7143 -0.142822H4.28571C1.91964 -0.142822 0 1.77682 0 4.14289V35.5715C0 37.9375 1.91964 39.8572 4.28571 39.8572H35.7143C38.0804 39.8572 40 37.9375 40 35.5715V4.14289C40 1.77682 38.0804 -0.142822 35.7143 -0.142822ZM19.9911 33.8929C17.6161 33.8929 15.2857 33.2947 13.2232 32.1697L5.71429 34.1429L7.72321 26.8036C6.48214 24.6607 5.83036 22.2232 5.83036 19.7232C5.83929 11.9197 12.1875 5.57146 19.9911 5.57146C23.7768 5.57146 27.3304 7.04468 30.0089 9.72325C32.6786 12.4018 34.2857 15.9554 34.2857 19.7411C34.2857 27.5447 27.7946 33.8929 19.9911 33.8929Z" fill="#2F5EC8"/>
</svg>
